<?xml version="1.0" encoding="UTF-8"?>
<svg width="24px" height="24px" viewBox="0 0 24 24" version="1.1" xmlns="http://www.w3.org/2000/svg" xmlns:xlink="http://www.w3.org/1999/xlink">
    <!-- Generator: Sketch 55.2 (78181) - https://sketchapp.com -->
    <g id="IcnMultiLogin" stroke="none" stroke-width="1" fill="none" fill-rule="evenodd">
        <path d="M6,4 L18,4 C19.1045695,4 20,4.8954305 20,6 L20,16 C20,17.1045695 19.1045695,18 18,18 L6,18 C4.8954305,18 4,17.1045695 4,16 L4,6 C4,4.8954305 4.8954305,4 6,4 Z M6,5 C5.44771525,5 5,5.44771525 5,6 L5,16 C5,16.5522847 5.44771525,17 6,17 L18,17 C18.5522847,17 19,16.5522847 19,16 L19,6 C19,5.44771525 18.5522847,5 18,5 L6,5 Z M7.5,19 L16.5,19 C16.7761424,19 17,19.2238576 17,19.5 C17,19.7761424 16.7761424,20 16.5,20 L7.5,20 C7.22385763,20 7,19.7761424 7,19.5 C7,19.2238576 7.22385763,19 7.5,19 Z M12,13 C12.5522847,13 13,13.4477153 13,14 C13,14.5522847 12.5522847,15 12,15 C11.4477153,15 11,14.5522847 11,14 C11,13.4477153 11.4477153,13 12,13 Z M11,11 L11,8 C11,7.44771525 11.4477153,7 12,7 C12.5522847,7 13,7.44771525 13,8 L13,11 C13,11.5522847 12.5522847,12 12,12 C11.4477153,12 11,11.5522847 11,11 Z" id="🎨-Icon-fill-color" fill="currentColor"></path>
    </g>
</svg>