<?xml version="1.0" encoding="UTF-8"?>
<svg width="24px" height="24px" viewBox="0 0 24 24" version="1.1" xmlns="http://www.w3.org/2000/svg" xmlns:xlink="http://www.w3.org/1999/xlink">
    <!-- Generator: Sketch 55.2 (78181) - https://sketchapp.com -->
    <g id="IcnSingleLogin" stroke="none" stroke-width="1" fill="none" fill-rule="evenodd">
        <path d="M6,4 L18,4 C19.1045695,4 20,4.8954305 20,6 L20,16 C20,17.1045695 19.1045695,18 18,18 L6,18 C4.8954305,18 4,17.1045695 4,16 L4,6 C4,4.8954305 4.8954305,4 6,4 Z M6,5 C5.44771525,5 5,5.44771525 5,6 L5,16 C5,16.5522847 5.44771525,17 6,17 L18,17 C18.5522847,17 19,16.5522847 19,16 L19,6 C19,5.44771525 18.5522847,5 18,5 L6,5 Z M7.5,19 L16.5,19 C16.7761424,19 17,19.2238576 17,19.5 C17,19.7761424 16.7761424,20 16.5,20 L7.5,20 C7.22385763,20 7,19.7761424 7,19.5 C7,19.2238576 7.22385763,19 7.5,19 Z" id="🎨-Icon-fill-color" fill="currentColor"></path>
        <path d="M10.8442437,12.9403002 L15.332239,8.15785054 C15.5212038,7.9564879 15.8376268,7.94643745 16.0389894,8.13540225 C16.2403521,8.32436705 16.2504025,8.64078996 16.0614377,8.84215261 L11.2202512,14.0009661 C11.1239517,14.1035838 10.9945501,14.156516 10.8641444,14.1587433 C10.7326239,14.1606747 10.6016072,14.1118772 10.5020985,14.0123684 L8.14644661,11.6567166 C7.95118446,11.4614544 7.95118446,11.144872 8.14644661,10.9496098 C8.34170876,10.7543477 8.65829124,10.7543477 8.85355339,10.9496098 L10.8442437,12.9403002 Z" id="🎨-Icon-fill-color" fill="currentColor"></path>
    </g>
</svg>